<?xml version="1.0" encoding="UTF-8"?>
<svg id="Layer_1" xmlns="http://www.w3.org/2000/svg" version="1.1" viewBox="2.00 63.63 608.00 608.00">
  <!-- Generator: Adobe Illustrator 29.3.1, SVG Export Plug-In . SVG Version: 2.1.0 Build 151)  -->
  <defs>
    <style>
      .st0 {
        fill: none;
        stroke: #9c1c2e;
        stroke-miterlimit: 10;
        stroke-width: 7.16px;
      }
    </style>
  </defs>
  <g>
    <ellipse class="st0" cx="306" cy="494.59" rx="121.1" ry="126.98"/>
    <ellipse class="st0" cx="306" cy="240.63" rx="121.1" ry="126.98"/>
  </g>
  <g>
    <path class="st0" d="M306,367.61c33.44,60.73,13.6,138.39-44.33,173.46-57.92,35.06-131.98,14.26-165.42-46.48-33.44-60.73-13.6-138.39,44.33-173.46,57.92-35.06,131.98-14.26,165.42,46.48Z"/>
    <path class="st0" d="M515.75,240.63c33.44,60.73,13.6,138.39-44.33,173.46-57.92,35.06-131.98,14.26-165.42-46.48-33.44-60.73-13.6-138.39,44.33-173.46,57.92-35.06,131.98-14.26,165.42,46.48Z"/>
  </g>
  <g>
    <path class="st0" d="M306,367.61c-33.44,60.73-107.5,81.54-165.42,46.48-57.92-35.06-77.77-112.72-44.33-173.46,33.44-60.73,107.5-81.54,165.42-46.48,57.92,35.06,77.77,112.72,44.33,173.46Z"/>
    <path class="st0" d="M515.75,494.59c-33.44,60.73-107.5,81.54-165.42,46.48-57.92-35.06-77.77-112.72-44.33-173.46,33.44-60.73,107.5-81.54,165.42-46.48,57.92,35.06,77.77,112.72,44.33,173.46Z"/>
  </g>
  <g>
    <ellipse class="st0" cx="306" cy="240.63" rx="121.1" ry="126.98"/>
    <ellipse class="st0" cx="306" cy="494.59" rx="121.1" ry="126.98"/>
  </g>
  <g>
    <path class="st0" d="M306,367.61c-33.44-60.73-13.6-138.39,44.33-173.46,57.92-35.06,131.98-14.26,165.42,46.48,33.44,60.73,13.6,138.39-44.33,173.46-57.92,35.06-131.98,14.26-165.42-46.48Z"/>
    <path class="st0" d="M96.25,494.59c-33.44-60.73-13.6-138.39,44.33-173.46,57.92-35.06,131.98-14.26,165.42,46.48,33.44,60.73,13.6,138.39-44.33,173.46-57.92,35.06-131.98,14.26-165.42-46.48Z"/>
  </g>
  <g>
    <path class="st0" d="M306,367.61c33.44-60.73,107.5-81.54,165.42-46.48,57.92,35.06,77.77,112.72,44.33,173.46-33.44,60.73-107.5,81.54-165.42,46.48-57.92-35.06-77.77-112.72-44.33-173.46Z"/>
    <path class="st0" d="M96.25,240.63c33.44-60.73,107.5-81.54,165.42-46.48,57.92,35.06,77.77,112.72,44.33,173.46-33.44,60.73-107.5,81.54-165.42,46.48-57.92-35.06-77.77-112.72-44.33-173.46Z"/>
  </g>
</svg>