<?xml version="1.0" encoding="UTF-8"?>
<svg id="Layer_1" xmlns="http://www.w3.org/2000/svg" version="1.1" viewBox="-91.66 -1.66 795.32 795.32">
  <!-- Generator: Adobe Illustrator 29.3.1, SVG Export Plug-In . SVG Version: 2.1.0 Build 151)  -->
  <defs>
    <style>
      .st0 {
        fill: #c68e8d;
      }

      .st1 {
        fill: #8b191b;
      }

      .st2 {
        fill: #fff;
      }
    </style>
  </defs>
  <g>
    <path class="st2" d="M455.51,450.08v45.26c0,81.59-65.69,148.12-146.96,149.47-83.61,1.39-152.03-69.82-152.03-153.44v-41.28c0-7.45,6.71-13.06,14.03-11.67,35.99,6.81,81.18,10.23,135.47,10.23s99.48-3.42,135.47-10.23c7.32-1.39,14.02,4.22,14.02,11.66Z"/>
    <path class="st1" d="M510.09,495.38v-134.62c0-.17,0-.34,0-.5-.41-16.52-21.45-29.09-64.27-38.42-37.44-8.15-87.1-12.64-139.81-12.64s-102.37,4.49-139.81,12.64c-42.82,9.33-63.86,21.9-64.27,38.42,0,.16,0,.33,0,.5v134.62c0,66.05,31.53,124.86,80.33,162.18-43.49,7.79-71.22,19.59-71.22,32.81,0,23.44,87.29,42.44,194.98,42.44s194.98-19,194.98-42.44c0-13.22-27.73-25.02-71.22-32.81,48.8-37.32,80.33-96.13,80.33-162.18ZM131.95,351.65c7.56-3.68,19.55-7.97,38.12-12,36.2-7.89,84.48-12.23,135.93-12.23s99.73,4.34,135.93,12.23c18.57,4.03,30.56,8.32,38.12,12,9.16,4.45,11.82,7.99,11.82,9.11s-2.67,4.66-11.84,9.11c-7.56,3.67-19.54,7.96-38.1,12-36.2,7.88-84.48,12.22-135.93,12.22s-99.73-4.34-135.93-12.22c-18.56-4.04-30.54-8.33-38.1-12-9.17-4.45-11.84-8-11.84-9.11s2.66-4.66,11.82-9.11ZM403.46,653.59c-28.35,17.54-61.75,27.67-97.46,27.67s-69.11-10.13-97.46-27.67c-53.02-32.77-88.41-91.44-88.41-158.21v-111.08c10.63,5.9,25.93,11,46.06,15.37,37.44,8.15,87.1,12.64,139.81,12.64s102.37-4.49,139.81-12.64c20.13-4.37,35.43-9.47,46.06-15.37v111.08c0,66.77-35.39,125.44-88.41,158.21Z"/>
    <path class="st2" d="M445.81,399.67c-37.44,8.15-87.1,12.64-139.81,12.64s-102.37-4.49-139.81-12.64c-20.13-4.37-35.43-9.47-46.06-15.37v111.08c0,66.77,35.39,125.44,88.41,158.21,28.35,17.54,61.75,27.67,97.46,27.67s69.11-10.13,97.46-27.67c53.02-32.77,88.41-91.44,88.41-158.21v-111.08c-10.63,5.9-25.93,11-46.06,15.37ZM455.51,495.34c0,81.59-65.69,148.12-146.96,149.47-83.61,1.39-152.03-69.82-152.03-153.44v-41.28c0-7.45,6.71-13.06,14.03-11.67,35.99,6.81,81.18,10.23,135.47,10.23s99.48-3.42,135.47-10.23c7.32-1.39,14.02,4.22,14.02,11.66v45.26Z"/>
  </g>
  <path class="st2" d="M491.87,360.76c0,1.11-2.67,4.66-11.84,9.11-7.56,3.67-19.54,7.96-38.1,12-36.2,7.88-84.48,12.22-135.93,12.22s-99.73-4.34-135.93-12.22c-18.56-4.04-30.54-8.33-38.1-12-9.17-4.45-11.84-8-11.84-9.11s2.66-4.66,11.82-9.11c7.56-3.68,19.55-7.97,38.12-12,36.2-7.89,84.48-12.23,135.93-12.23s99.73,4.34,135.93,12.23c18.57,4.03,30.56,8.32,38.12,12,9.16,4.45,11.82,7.99,11.82,9.11Z"/>
  <path class="st1" d="M404.74,81.5c-12.23-14.18-30.45-22.31-50-22.31-16.16,0-31.08,6.14-43.15,17.75-3.08,2.97-8.1,2.97-11.18,0-12.07-11.61-26.99-17.75-43.15-17.75-19.55,0-37.78,8.13-50,22.31-12.89,14.94-18.19,35.28-14.92,57.28,3.18,21.34,14.9,41.98,35.82,63.11,14.98,15.04,35.03,30.76,63.09,49.48,4.48,2.99,9.61,4.48,14.75,4.48s10.27-1.49,14.75-4.48c28.06-18.72,48.11-34.45,63.11-49.5,20.91-21.11,32.62-41.75,35.81-63.09,3.27-21.99-2.03-42.33-14.92-57.27Z"/>
  <path class="st0" d="M455.51,450.08v45.26c0,81.59-65.69,148.12-146.96,149.47-83.61,1.39-152.03-69.82-152.03-153.44v-41.28c0-7.45,6.71-13.06,14.03-11.67,35.99,6.81,81.18,10.23,135.47,10.23s99.48-3.42,135.47-10.23c7.32-1.39,14.02,4.22,14.02,11.66Z"/>
  <circle class="st2" cx="355.46" cy="569.54" r="13.09"/>
  <circle class="st2" cx="307.26" cy="504.89" r="7.92"/>
  <circle class="st2" cx="231.53" cy="496.97" r="13.09"/>
  <path class="st2" d="M278.79,596.88c-15.07,0-27.34-12.26-27.34-27.34s12.26-27.34,27.34-27.34,27.34,12.26,27.34,27.34-12.26,27.34-27.34,27.34ZM278.79,551.31c-10.05,0-18.23,8.18-18.23,18.23s8.18,18.23,18.23,18.23,18.23-8.18,18.23-18.23-8.18-18.23-18.23-18.23Z"/>
  <path class="st2" d="M374.57,526.71c-15.07,0-27.34-12.26-27.34-27.34s12.26-27.34,27.34-27.34,27.34,12.26,27.34,27.34-12.26,27.34-27.34,27.34ZM374.57,481.15c-10.05,0-18.23,8.18-18.23,18.23s8.18,18.23,18.23,18.23,18.23-8.18,18.23-18.23-8.18-18.23-18.23-18.23Z"/>
</svg>