<?xml version="1.0" encoding="UTF-8"?>
<svg id="Layer_1" xmlns="http://www.w3.org/2000/svg" version="1.1" viewBox="75.65 164.27 486.45 486.45">
  <!-- Generator: Adobe Illustrator 29.3.1, SVG Export Plug-In . SVG Version: 2.1.0 Build 151)  -->
  <defs>
    <style>
      .st0 {
        fill: #8b191b;
      }
    </style>
  </defs>
  <path class="st0" d="M524.81,341.07c-1.18-36.05-10.23-77.15-39.99-101.41-19.75-16.09-46.14-23.59-71.7-21.32-29.41,2.56-48.94,20.66-75.34,30.61-11.17,4.21-23.91,5.72-35.22,1.77-7.85-2.73-14.61-7.91-21.77-12.1-35.97-21.1-97.27-18.42-128.41,9.95-19.19,17.42-26.13,43.83-32.25,68.69-3.76,15.43-7.57,31.06-7.19,46.98.44,23.34,9.85,45.68,20.7,66.59,13.84,26.59,30.18,51.93,48.87,75.66,17.11,21.66,28.6,41.51,54.43,55.68,2.89,1.98,6.02,3.89,9.47,5.75,20.7,13.82,33.19,22.1,59.14,26.67,23.17,3.14,47.84,5.8,68.53-6.72,32.73-19.75,59.47-47.72,83.72-76.96,27.45-33.13,53.01-69.56,61.75-111.3,3.71-17.55,5.88-37.9,5.27-58.52ZM185.17,284.76c-1.64,4.9-3.31,9.9-4.97,14.9-2.69,7.68-5.43,15.67-10.6,22.07-5.19,6.51-13.33,11.35-21.6,10.35-1.39-.13-2.84-.49-3.74-1.49-2.17-2.38.11-6.01,1.72-8.9,3.43-6.39,2.56-14.15,4.68-21.09,1.72-5.31,5.04-9.92,8.33-14.32,3.47-4.8,8.95-16.54,16.58-14.38,2.89.81,5.11,2.89,7.13,4.93,1.48,1.42,2.94,2.94,3.13,4.87.03,1.06-.27,2.07-.66,3.06ZM189.9,514.09s-.11-.02-.09-.12l.12-.08-.04.21ZM261.99,569.85l-.09-.12.12-.08-.04.21ZM456.63,272.03c-3.21,3.36-8.76,3.46-12.83,2.02-4.98-1.81-9-5.35-13.63-7.95-7.87-4.42-17.55-5.45-26.25-2.93-7.22,2.14-13.52,6.45-20.14,10.07-6.7,3.5-14.35,6.2-21.72,4.41-.53-.09-1.03-.28-1.4-.66-1.01-1.02-.08-2.55.88-3.66,5.73-6.52,11.59-13.13,18.69-18.25,4.88-3.6,10.38-6.46,15.83-9.01,5.57-2.64,10.24-4.48,16.51-4.99,6.82-.52,13.69-.18,20.35,1.38,8.63,2.01,21.2,7.45,24.34,16.45.07.22.14.45.2.67,1.22,4.02,2.12,9.25-.84,12.44ZM498.68,294.91c-.4.99-1,1.94-1.87,2.53-2.35,1.6-5.6.41-8.08-.86-1.48-.78-2.95-1.67-4.15-2.83-1.29-1.28-2.18-2.91-2.96-4.63-2.67-5.01-5.24-10-7.89-15.1-.24-.46-.46-1.03-.58-1.58-.12-.55,0-1.17.21-1.76.8-2.61,2.82-4.8,5.39-5.84,6.77-2.64,8.59,2.85,11.58,7.28,1.56,2.17,3.22,4.36,4.78,6.53.85,1.31,1.8,2.64,2.52,4.03,1.91,3.82,2.81,8.41,1.04,12.23Z"/>
</svg>