<?xml version="1.0" encoding="UTF-8"?>
<svg id="Layer_1" xmlns="http://www.w3.org/2000/svg" version="1.1" viewBox="-108.81 -14.31 803.88 803.88">
  <!-- Generator: Adobe Illustrator 29.3.1, SVG Export Plug-In . SVG Version: 2.1.0 Build 151)  -->
  <defs>
    <style>
      .st0 {
        fill: #8b191b;
      }
    </style>
  </defs>
  <path class="st0" d="M321.67,48.98c-47.84,81.88-90.85,168.78-134.87,254.27-22.24,33.56-41.39,72.38-60.27,109.75-4.2,9.12-6.21,18.93,2.19,22.65,34.98,3.84,75.92-1.5,111.89,2.81,14.35,3.93,11.33,26.42,11.69,41.07.25,30.42,0,52.9-.08,83.96-2.12,23.14,7.17,45.16,5.21,67.64-4.89,26.7-6.99,58.68-4.45,86.67.91,5.77,2.93,9.81,5.72,10.27,3.24.73,7.47-3.53,10.97-9.41,25.39-47.18,52.14-96.91,77.07-144.93,7.78-23.25,17.74-40.55,31.36-58.31,26.17-48.81,51.06-96.47,78.29-147.34,12.66-24.6,7.95-32.42-14.79-29.97-26.68-.01-78.1.02-94.5-.02-3.67-.07-7.12-.42-9.45-4.3-7.96-20.02-2.58-46.88-4.2-69.36.81-32.26-.08-60.81-6.59-90.78,1.48-20.59,8.87-39.3,8.01-61.42-1.42-14.46,4.4-71.69-11.68-64.51l-1.51,1.24Z"/>
</svg>