<?xml version="1.0" encoding="UTF-8"?>
<svg id="Layer_1" xmlns="http://www.w3.org/2000/svg" version="1.1" viewBox="75.23 167.23 446.04 446.04">
  <!-- Generator: Adobe Illustrator 29.3.1, SVG Export Plug-In . SVG Version: 2.1.0 Build 151)  -->
  <defs>
    <style>
      .st0 {
        fill: #8b191b;
      }
    </style>
  </defs>
  <path class="st0" d="M475.51,428.07c-4.79-18.64-19.59-30.67-32.48-42.07-25.56-20.55-59-28.33-87.43-11.29-13.63,6.39-24.28,20.77-37.59,27.47-8.2,3.41-13.31-5.96-11.5-16.19,3.19-29.29,29.07-36.85,49.73-36.74,22.79-2.34,44.83-.21,67.52.11,4.37-.11,9.16-1.17,12.14-4.69l.64-.64c16.08-26.09-11.39-55.16-26.84-72.84-46.43-51.01-104.36-83.91-167.09-63.68-42.6,12.03-72.84,52.71-105.85,84.24-34.93,30.56-7.14,49.84,22.04,56.87,20.13,5.32,39.72,12.25,60.27,10.12,25.56-5.96,37.38,19.59,29.07,46.75-10.01,39.51-20.55,77.21-19.49,119.59.32,26.3,15.23,50.37,37.8,52.18,15.97,2.13,29.82,3.2,45.37-1.81,57.51-18.85,3.62-111.18,5.64-126.62.53-1.49,7.56,3.51,13.42,5.75,6.82,2.66,14.59,2.98,21.72,1.81,14.8-3.2,9.58,8.73,6.39,19.49-12.03,38.87-15.23,102.55,32.16,102.34,52.93,3.52,61.13-58.68,30.67-101.59-7.77-10.44-11.93-27.69,5.11-28.22,12.67-2.13,23.85.11,35.36,1.92,10.12,1.17,15.65-11.18,13.2-22.26ZM182.13,320.83c-7.56,12.99-37.48-1.39-27.9-17.25l1.07-1.38c2.45-2.66,9.48-6.39,10.44-.75.53,2.98.53,6.5,3.3,8.52,3.51,2.77,8.95,2.66,12.25,5.64,1.06,1.6,1.28,3.41.85,5.22ZM270.51,242.56c-10.22,2.13-21.83,1.6-30.88,8.09-11.39,7.24-18.21,19.7-28.22,28.65-14.27,14.91-41.85,10.01-18.42-9.69l1.38-1.38c12.89-15.66,28.54-37.8,52.18-39.19,9.05-.85,27.16-1.7,31.2,6.82.43,4.05-3.73,5.64-7.24,6.71ZM386.27,389.31c-1.17,2.77-4.47,4.37-7.77,5.86-6.92,2.45-14.27,8.73-22.26,7.24-5.11-5.96,15.44-17.57,19.91-19.59l1.6-.53c4.15-1.38,10.65,2.34,8.52,7.03Z"/>
</svg>