<?xml version="1.0" encoding="UTF-8"?>
<svg id="Layer_1" xmlns="http://www.w3.org/2000/svg" version="1.1" viewBox="15.54 107.17 597.67 597.67">
  <!-- Generator: Adobe Illustrator 29.3.1, SVG Export Plug-In . SVG Version: 2.1.0 Build 151)  -->
  <defs>
    <style>
      .st0 {
        fill: none;
      }

      .st1 {
        fill: #c68e8d;
      }

      .st2 {
        fill: #8b191b;
      }

      .st3 {
        fill: #fff;
      }
    </style>
  </defs>
  <g>
    <path class="st1" d="M264.27,214.18l-44.43,117.06c-5.54,14.6-8.7,29.89-9.39,45.47l-3.94,89.27c-.08,1.8-.26,3.58-.55,5.34-.7-.66-1.39-1.33-2.07-2-28.26-27.9-45.73-66.45-45.73-109.03s17.47-81.13,45.73-109.03c16.79-16.58,37.38-29.39,60.38-37.07Z"/>
    <path class="st1" d="M323.65,311.08c-3.61,1.9-6.79,4.52-9.34,7.65-2.55-3.13-5.73-5.74-9.34-7.65l9.34-67.49,9.34,67.49Z"/>
    <path class="st1" d="M470.46,360.28c0,42.58-17.47,81.13-45.73,109.03-.68.67-1.37,1.34-2.07,2-.29-1.76-.47-3.53-.55-5.34l-3.94-89.27c-.69-15.57-3.85-30.87-9.39-45.47l-44.43-117.06c61.69,20.6,106.11,78.23,106.11,146.1Z"/>
    <g>
      <path class="st2" d="M497.44,544.76l-6.98-7.84c-5.57-6.27-13.61-9.56-22.04-9.05-2.27.14-4.49.55-6.6,1.21l-29.82-37c-4.91-6.09-8.09-13.2-9.35-20.77-.29-1.76-.47-3.53-.55-5.34l-3.94-89.27c-.69-15.57-3.85-30.87-9.39-45.47l-44.43-117.06-11.68-30.76c-2.22-5.85-6.62-10.46-12.39-13-5.77-2.54-12.19-2.69-18.08-.41-3.03,1.17-5.69,2.9-7.89,5.04-2.2-2.14-4.86-3.87-7.89-5.04-5.88-2.27-12.3-2.13-18.08.41-5.77,2.54-10.17,7.16-12.39,13l-11.68,30.76-44.43,117.06c-5.54,14.6-8.7,29.89-9.39,45.47l-3.94,89.27c-.08,1.8-.26,3.58-.55,5.34-1.25,7.58-4.43,14.68-9.35,20.77l-29.82,37c-2.11-.66-4.32-1.07-6.6-1.21-8.44-.52-16.47,2.78-22.04,9.05l-6.98,7.84c-8.15,9.16-9,22.61-2.06,32.7l5.94,8.63c18.6,27.03,43.98,49.23,73.4,64.19l11.39,5.79c3.95,2.01,8.2,2.98,12.41,2.98,7.6,0,15.06-3.17,20.35-9.11l7.04-7.9c5.55-6.24,7.83-14.49,6.27-22.64-.74-3.85-2.29-7.41-4.5-10.5l37.34-39.12c6.6-6.91,11.83-14.8,15.56-23.32,3.73,8.53,8.96,16.41,15.56,23.32l37.34,39.12c-2.22,3.09-3.76,6.64-4.5,10.5-1.56,8.16.72,16.41,6.27,22.64l7.04,7.9c5.29,5.95,12.75,9.11,20.35,9.11,4.21,0,8.47-.97,12.41-2.98l11.39-5.79c29.42-14.96,54.81-37.15,73.4-64.19l5.94-8.63c6.94-10.09,6.09-23.54-2.06-32.7ZM307.63,514.47c0,17.27-6.6,33.7-18.6,46.26l-37.81,39.61-1.82-.92c-27.44-13.95-51.12-34.65-68.46-59.87-.84-1.22-1.76-2.35-2.76-3.39l28.9-35.85c4.66-5.78,8.11-12.26,10.26-19.17,1.45-4.69,2.31-9.58,2.53-14.59l3.94-89.26c.63-14.18,3.51-28.12,8.55-41.42l47.86-126.08,8.25-21.74c.95-2.51,2.84-4.49,5.32-5.58,1.31-.58,2.7-.87,4.09-.87,1.23,0,2.48.23,3.67.69,2.95,1.14,5.08,3.52,5.96,6.35.41,1.34.54,2.77.34,4.24l-.27,1.98-1.59,11.46-14.01,101.27c-.41-.02-.83-.03-1.25-.03-16.69,0-30.28,13.41-30.28,29.89v97.41c0,3.64,2.99,6.6,6.68,6.6s6.68-2.96,6.68-6.6v-97.41c0-9.21,7.59-16.7,16.91-16.7,1.59,0,3.13.22,4.58.62.23.09.47.16.72.22.01,0,.03,0,.04.01,6.71,2.22,11.56,8.48,11.56,15.84v177.03ZM314.31,318.73c-2.55-3.13-5.73-5.74-9.34-7.65l9.34-67.49,9.34,67.49c-3.61,1.9-6.79,4.52-9.34,7.65ZM447.68,539.55c-17.34,25.21-41.02,45.92-68.46,59.87l-1.82.92-37.81-39.61c-12-12.56-18.6-28.99-18.6-46.26v-177.03c0-7.37,4.85-13.63,11.56-15.84.01,0,.03,0,.04-.01.25-.06.48-.13.72-.22,1.46-.41,2.99-.62,4.58-.62,9.32,0,16.91,7.49,16.91,16.7v97.41c0,3.64,2.99,6.6,6.68,6.6s6.68-2.96,6.68-6.6v-97.41c0-16.49-13.59-29.89-30.28-29.89-.42,0-.84,0-1.25.03l-14.01-101.27-1.59-11.46-.27-1.98c-.21-1.46-.07-2.9.34-4.24.87-2.83,3.01-5.21,5.96-6.35,2.53-.98,5.28-.91,7.76.18,2.48,1.09,4.37,3.07,5.32,5.58l8.25,21.74,47.86,126.08c5.05,13.3,7.92,27.24,8.55,41.42l3.94,89.26c.22,5.01,1.08,9.9,2.53,14.59,2.14,6.91,5.6,13.39,10.26,19.17l28.9,35.85c-1,1.04-1.92,2.17-2.76,3.39Z"/>
      <path class="st3" d="M450.44,536.16c-1,1.04-1.92,2.17-2.76,3.39-17.34,25.21-41.02,45.92-68.46,59.87l-1.82.92-37.81-39.61c-12-12.56-18.6-28.99-18.6-46.26v-177.03c0-7.37,4.85-13.63,11.56-15.84.01,0,.03,0,.04-.01.25-.06.48-.13.72-.22,1.46-.41,2.99-.62,4.58-.62,9.32,0,16.91,7.49,16.91,16.7v97.41c0,3.64,2.99,6.6,6.68,6.6s6.68-2.96,6.68-6.6v-97.41c0-16.49-13.59-29.89-30.28-29.89-.42,0-.84,0-1.25.03l-14.01-101.27-1.59-11.46-.27-1.98c-.21-1.46-.07-2.9.34-4.24.87-2.83,3.01-5.21,5.96-6.35,2.53-.98,5.28-.91,7.76.18,2.48,1.09,4.37,3.07,5.32,5.58l8.25,21.74,47.86,126.08c5.05,13.3,7.92,27.24,8.55,41.42l3.94,89.26c.22,5.01,1.08,9.9,2.53,14.59,2.14,6.91,5.6,13.39,10.26,19.17l28.9,35.85Z"/>
    </g>
    <path class="st3" d="M260.44,337.44v97.41c0,3.64,2.99,6.6,6.68,6.6s6.68-2.96,6.68-6.6v-97.41c0-9.21,7.59-16.7,16.91-16.7,1.59,0,3.13.22,4.58.62.23.09.47.16.72.22.01,0,.03,0,.04.01,6.71,2.22,11.56,8.48,11.56,15.84v177.03c0,17.27-6.6,33.7-18.6,46.26l-37.81,39.61-1.82-.92c-27.44-13.95-51.12-34.65-68.46-59.87-.84-1.22-1.76-2.35-2.76-3.39l28.9-35.85c4.66-5.78,8.11-12.26,10.26-19.17,1.45-4.69,2.31-9.58,2.53-14.59l3.94-89.26c.63-14.18,3.51-28.12,8.55-41.42l47.86-126.08,8.25-21.74c.95-2.51,2.84-4.49,5.32-5.58,1.31-.58,2.7-.87,4.09-.87,1.23,0,2.48.23,3.67.69,2.95,1.14,5.08,3.52,5.96,6.35.41,1.34.54,2.77.34,4.24l-.27,1.98-1.59,11.46-14.01,101.27c-.41-.02-.83-.03-1.25-.03-16.69,0-30.28,13.41-30.28,29.89Z"/>
  </g>
  <g>
    <line class="st0" x1="199.07" y1="204.11" x2="166.39" y2="159.7"/>
    <path class="st2" d="M199.08,210.71c-2.07,0-4.1-.94-5.41-2.72l-32.68-44.41c-2.17-2.95-1.51-7.07,1.48-9.22,2.99-2.14,7.17-1.49,9.33,1.46l32.68,44.41c2.17,2.95,1.51,7.07-1.48,9.22-1.19.85-2.56,1.26-3.92,1.26Z"/>
  </g>
  <g>
    <line class="st0" x1="128.11" y1="300.82" x2="75.24" y2="283.86"/>
    <path class="st2" d="M128.11,307.42c-.68,0-1.38-.1-2.07-.32l-52.87-16.96c-3.51-1.13-5.43-4.85-4.29-8.31,1.14-3.47,4.91-5.36,8.42-4.24l52.87,16.96c3.51,1.13,5.43,4.85,4.29,8.32-.92,2.79-3.54,4.56-6.35,4.56Z"/>
  </g>
  <g>
    <line class="st0" x1="128.28" y1="420.25" x2="75.4" y2="437.21"/>
    <path class="st2" d="M75.4,443.81c-2.82,0-5.44-1.77-6.35-4.56-1.14-3.47.78-7.19,4.29-8.31l52.87-16.96c3.51-1.13,7.28.77,8.42,4.24,1.14,3.47-.78,7.19-4.29,8.32l-52.87,16.96c-.69.22-1.38.33-2.07.33Z"/>
  </g>
  <g>
    <line class="st0" x1="500.51" y1="419.75" x2="553.38" y2="436.71"/>
    <path class="st2" d="M553.39,443.31c-.68,0-1.38-.1-2.07-.33l-52.87-16.96c-3.51-1.13-5.43-4.85-4.29-8.32,1.14-3.47,4.91-5.36,8.42-4.24l52.87,16.96c3.51,1.13,5.43,4.85,4.29,8.31-.92,2.79-3.54,4.56-6.35,4.56Z"/>
  </g>
  <g>
    <line class="st0" x1="500.35" y1="300.33" x2="553.22" y2="283.36"/>
    <path class="st2" d="M500.34,306.93c-2.82,0-5.44-1.77-6.35-4.56-1.14-3.47.78-7.19,4.29-8.32l52.87-16.96c3.51-1.13,7.28.77,8.42,4.24,1.14,3.47-.78,7.19-4.29,8.31l-52.87,16.96c-.69.22-1.38.32-2.07.32Z"/>
  </g>
  <g>
    <line class="st0" x1="429.12" y1="203.81" x2="461.8" y2="159.39"/>
    <path class="st2" d="M429.12,210.4c-1.36,0-2.74-.41-3.92-1.26-2.99-2.14-3.65-6.27-1.48-9.22l32.68-44.41c2.17-2.95,6.35-3.6,9.33-1.46,2.99,2.14,3.65,6.27,1.48,9.22l-32.68,44.41c-1.31,1.78-3.35,2.72-5.41,2.72Z"/>
  </g>
</svg>